<svg width="20" height="20" viewBox="0 0 20 20" xmlns="http://www.w3.org/2000/svg"><path fill-rule="evenodd" clip-rule="evenodd" d="M11.248 14.251a1.25 1.25 0 11-2.5 0 1.25 1.25 0 012.5 0zm-1.25-8.25a1 1 0 011 1v4a1 1 0 11-2 0v-4a1 1 0 011-1zm1.843-4.994a3.6 3.6 0 00-3.682 0c-.512.305-.892.786-1.237 1.32-.345.534-.731 1.245-1.208 2.125 0 0-5.056 9.315-5.298 9.857-.244.546-.429 1.092-.418 1.66a3.6 3.6 0 001.82 3.059c.494.28 1.062.38 1.659.425.592.046 1.341.046 2.263.046 0 0 10.191 0 10.783-.046.597-.046 1.165-.144 1.659-.425a3.6 3.6 0 001.82-3.058c.01-.569-.173-1.115-.418-1.66-.242-.543-.6-1.202-1.04-2.012 0 0-5.121-9.437-5.466-9.97-.345-.534-.725-1.016-1.237-1.32zM9.18 2.726a1.6 1.6 0 011.637 0c.103.061.277.218.58.687.299.461.649 1.105 1.15 2.03 0 0 5.003 9.22 5.21 9.682.21.468.246.686.244.805a1.6 1.6 0 01-.809 1.359c-.103.06-.313.13-.823.17-.506.039-1.179.04-2.152.04 0 0-10.082-.001-10.588-.04-.51-.04-.72-.11-.823-.17a1.6 1.6 0 01-.809-1.359c-.002-.119.035-.337.244-.805.207-.463.527-1.054.991-1.91 0 0 5.07-9.34 5.369-9.802.303-.469.477-.626.58-.687z"/></svg>