<svg width="16" height="20" viewBox="0 0 16 20" xmlns="http://www.w3.org/2000/svg"><path d="M5 10a1 1 0 100 2h6a1 1 0 100-2H5zm-1 5a1 1 0 011-1h4a1 1 0 010 2H5a1 1 0 01-1-1z"/><path fill-rule="evenodd" clip-rule="evenodd" d="M10.288.305C9.549-.001 8.744-.001 7.685 0h-.756C5.575 0 4.46 0 3.575.119 2.647.244 1.828.516 1.17 1.172.515 1.828.243 2.647.12 3.575c-.12.884-.12 2-.12 3.354v6.142c0 1.354 0 2.47.12 3.354.124.928.396 1.747 1.052 2.403.656.657 1.476.929 2.404 1.053.884.12 2 .12 3.354.12H9.07c1.355 0 2.471 0 3.355-.12.928-.124 1.747-.396 2.403-1.052.656-.657.928-1.476 1.053-2.404.119-.884.119-2 .119-3.354V8.316c0-1.06.002-1.865-.305-2.604-.306-.739-.875-1.307-1.625-2.056L12.344 1.93c-.749-.75-1.317-1.32-2.056-1.625zM8 2a78.861 78.861 0 00-.485 0H7c-1.442 0-2.424.001-3.159.1-.706.095-1.033.262-1.255.485-.223.223-.39.55-.485 1.256C2.002 4.576 2 5.558 2 7v6c0 1.443.002 2.424.101 3.159.095.706.262 1.033.485 1.255.222.223.55.39 1.255.485C4.576 18 5.557 18 7 18h2c1.442 0 2.424-.002 3.159-.1.706-.096 1.033-.263 1.255-.486.223-.222.39-.55.485-1.255.099-.735.101-1.716.101-3.159V8.486L13.999 8h-5a1 1 0 01-1-1V2.001zm5.54 4c-.194-.233-.499-.545-1.005-1.051L11.05 3.465c-.506-.506-.818-.81-1.05-1.005V6h3.54z"/></svg>