
<svg width="102px" height="30px" viewBox="0 0 102 30" version="1.1" xmlns="http://www.w3.org/2000/svg" xmlns:xlink="http://www.w3.org/1999/xlink">
    <g id="Symbols" stroke="none" stroke-width="1" fill="none" fillRule="evenodd">
        <g id="menu" transform="translate(-1007.000000, -25.000000)" fill="#ED1700">
            <path d="M1109,36.1007043 C1109,39.5313911 1104.93388,51.2774935 1104.26674,53.0403299 C1103.82811,54.1985794 1102.98789,54.3625474 1101.89939,54.3625474 C1099.9293,54.3625474 1098.44355,53.8919521 1097.7192,53.3097574 C1097.56915,53.1898513 1097.38348,52.9327033 1097.50942,52.5560104 C1098.24996,50.3406369 1101.06098,42.3636309 1101.06098,40.6401613 C1101.06098,39.6968037 1100.78283,38.9874797 1099.84438,38.9874797 C1094.15505,38.9874797 1083.70223,51.1720339 1081.76128,53.3502077 C1081.12617,54.0620598 1080.19564,54.2123036 1079.10859,54.2123036 C1077.76317,54.2123036 1076.33031,53.4957563 1076.19393,53.4249684 C1075.76861,53.2042978 1075.74845,52.9605129 1075.8744,52.4458557 L1076.23171,50.9874797 C1076.88553,48.319569 1080.27229,38.4489857 1082.62021,33.0998014 C1082.71988,32.8737134 1082.81739,32.6859086 1083.32728,32.6060916 C1083.56405,32.5688918 1084.34093,32.3872269 1085.42295,32.3872269 C1086.21639,32.3872269 1087.75828,32.4439295 1088.5312,32.8599892 C1088.5312,32.8599892 1088.53768,32.848432 1088.53768,34.1504244 C1088.53768,34.7127551 1088.59885,36.6247517 1090.3919,36.6247517 C1093.41775,36.6247517 1098.91061,31.4124481 1103.76729,31.4124481 C1108.03708,31.4124481 1109,34.0568832 1109,36.1007043 M1048.58422,40.4126287 C1048.58422,41.124842 1047.75768,43.0852345 1047.64074,43.3748871 C1046.89768,45.21429 1044.94918,45.5126106 1043.57749,45.5126106 C1041.5196,45.5126106 1040.81253,44.7707819 1040.81253,43.6002528 C1040.81253,42.6944561 1041.57178,41.1306206 1041.67181,40.9001986 C1042.59838,38.7693373 1044.25686,38.5378318 1045.89374,38.5378318 C1047.28162,38.5378318 1048.58422,39.1171372 1048.58422,40.4126287 M1030.98618,35.9125384 C1030.98618,34.5560104 1030.92249,32.6122314 1029.86565,32.6122314 C1026.426,32.6122314 1020.38367,37.8920725 1019.77771,38.4999097 C1019.32935,38.9502799 1019.66472,38.9123578 1020.26348,38.9123578 L1027.9974,38.9123578 C1030.73753,38.9123578 1030.98618,38.4497081 1030.98618,35.9125384 M1039.24329,36.6247517 C1039.24329,43.2715945 1035.16961,44.6501535 1030.65009,44.6501535 L1027.47456,44.6501535 C1024.30082,44.6501535 1017.90945,44.4623488 1017.90945,44.4623488 C1017.39669,44.4522362 1017.0131,44.3500271 1017.0131,44.6501535 C1017.0131,46.8174923 1019.45602,50.0878228 1023.17778,50.0878228 C1026.10863,50.0878228 1027.9974,48.2502257 1028.40833,47.8150244 C1028.40833,47.8150244 1031.77601,47.4249684 1033.9379,47.4249684 C1036.03717,47.4249684 1039.13138,47.7622946 1039.13138,48.9624391 C1039.13138,51.3034973 1031.55328,55 1025.19537,55 C1015.6227,55 1007,49.7804731 1007,43.48757 C1007,32.9426955 1027.27701,25 1033.19088,25 C1038.51679,25 1039.24329,33.5136941 1039.24329,36.6247517 M1064.64973,36.4001083 C1063.92863,36.4001083 1062.85632,36.5127912 1062.37018,37.1874436 C1060.55014,39.7166677 1059.34398,46.040992 1059.34398,47.8002167 C1059.34398,49.0014447 1060.17556,48.9248781 1061.28672,48.9248781 C1061.93335,48.9248781 1062.97686,48.9411304 1063.56591,48.3253476 C1065.16502,46.6535243 1066.54462,39.0777704 1066.54462,37.7100463 C1066.54462,36.7374345 1066.47481,36.4001083 1064.64973,36.4001083 M1076.67971,36.062421 C1076.67971,38.9495576 1073.83954,45.2886896 1072.927,47.0497201 C1069.11168,54.4123879 1064.01463,54.3625474 1058.26016,54.3625474 C1055.44842,54.3625474 1049.18155,54.3950521 1049.18155,49.1123217 C1049.18155,46.7495937 1051.23296,42.4188888 1052.9177,38.3128273 C1053.63413,36.5666045 1056.68625,30.6998736 1067.07789,30.6998736 C1071.36424,30.6998736 1076.67971,31.3752483 1076.67971,36.062421" id="EON_Logo_medium"></path>
        </g>
    </g>
</svg>