<svg width="18" height="22" xmlns="http://www.w3.org/2000/svg"><path fill-rule="evenodd" clip-rule="evenodd" d="M13 5A5 5 0 113 5a5 5 0 0110 0zm-2 0a3 3 0 11-6 0 3 3 0 016 0z"></path><path d="M6.965 12c-.902 0-1.63 0-2.222.04-.608.042-1.147.13-1.656.34A5 5 0 00.38 15.088c-.212.51-.3 1.048-.34 1.656C-.012 17.493 0 18.248 0 19a1 1 0 102 0c0-.946 0-1.605.036-2.12.034-.507.099-.803.192-1.028a3 3 0 011.624-1.624c.225-.093.52-.158 1.027-.192C5.396 14 6.056 14 7 14h2c.946 0 1.605 0 2.12.036.508.034.803.099 1.028.192a3 3 0 011.624 1.624c.093.225.158.52.192 1.027C14 17.395 14 18.054 14 19a1 1 0 102 0c0-.752.01-1.506-.04-2.257-.042-.608-.13-1.147-.34-1.656a5 5 0 00-2.707-2.706c-.51-.211-1.048-.3-1.656-.34C10.665 12 9.937 12 9.036 12H6.965z"></path></svg>
