<svg
          xmlns="http://www.w3.org/2000/svg"
          width="24"
          height="26"
          viewBox="0 0 24 26"
        >
          <path d="M23 12h-3.1c-.6-2.1-2.8-3.4-4.9-2.8-1.4.4-2.4 1.4-2.8 2.8H1c-.6 0-1 .4-1 1s.4 1 1 1h11.1c.6 2.1 2.8 3.4 4.9 2.8 1.4-.4 2.4-1.4 2.8-2.8H23c.6 0 1-.4 1-1s-.4-1-1-1zm-7 3c-1.1 0-2-.9-2-2s.9-2 2-2 2 .9 2 2-.9 2-2 2zm7 6h-8.1c-.6-2.1-2.8-3.4-4.9-2.8-1.4.4-2.4 1.4-2.8 2.8H1c-.6 0-1 .4-1 1s.4 1 1 1h6.1c.6 2.1 2.8 3.4 4.9 2.8 1.4-.4 2.4-1.4 2.8-2.8H23c.6 0 1-.4 1-1s-.4-1-1-1zm-12 3c-1.1 0-2-.9-2-2s.9-2 2-2 2 .9 2 2-.9 2-2 2zM1 5h3.1C4.7 7.1 6.9 8.4 9 7.8c1.4-.4 2.4-1.4 2.8-2.8H23c.6 0 1-.4 1-1s-.4-1-1-1H11.9C11.3.9 9.1-.4 7 .2 5.6.6 4.6 1.6 4.2 3H1c-.6 0-1 .4-1 1s.4 1 1 1zm7-3c1.1 0 2 .9 2 2s-.9 2-2 2-2-.9-2-2 .9-2 2-2z"></path>
        </svg>