<svg width="18" height="20" viewBox="0 0 18 20" xmlns="http://www.w3.org/2000/svg"><path d="M5.293 5.207a1 1 0 001.414 0L8 3.915V10.5a1 1 0 002 0V3.915l1.293 1.293a1 1 0 001.414-1.415l-3-3A1 1 0 009 .5a1 1 0 00-.707.293l-3 3a1 1 0 000 1.415z"/><path d="M17 10.5a1 1 0 00-1 1v1c0 1.443-.002 2.424-.1 3.159-.096.706-.263 1.033-.486 1.256-.222.222-.55.39-1.255.485-.735.098-1.716.1-3.159.1H7c-1.442 0-2.424-.002-3.159-.1-.706-.096-1.033-.263-1.255-.485-.223-.223-.39-.55-.485-1.256C2.002 14.924 2 13.943 2 12.5v-1a1 1 0 00-2 0v1c0 1.386-.002 2.526.119 3.425.125.928.397 1.747 1.053 2.404.656.656 1.475.928 2.403 1.052.899.121 2.04.119 3.425.119h4c1.386 0 2.526.002 3.425-.119.928-.124 1.747-.396 2.403-1.052.657-.657.929-1.476 1.053-2.404.121-.899.119-2.039.119-3.425v-1a1 1 0 00-1-1z"/></svg>